<?xml version="1.0" encoding="UTF-8"?>
<!DOCTYPE svg PUBLIC "-//W3C//DTD SVG 1.1//EN" "http://www.w3.org/Graphics/SVG/1.1/DTD/svg11.dtd">
<!-- Creator: CorelDRAW 2019 (64-Bit) -->
<svg xmlns="http://www.w3.org/2000/svg" xml:space="preserve" width="400mm" height="400mm" version="1.1" style="shape-rendering:geometricPrecision; text-rendering:geometricPrecision; image-rendering:optimizeQuality; fill-rule:evenodd; clip-rule:evenodd"
viewBox="0 0 40000 40000"
 xmlns:xlink="http://www.w3.org/1999/xlink">
 <defs>
  <style type="text/css">
   <![CDATA[
    .str0 {stroke:#2B2A29;stroke-width:20;stroke-miterlimit:22.9256}
    .fil4 {fill:none}
    .fil7 {fill:#EBECEC}
    .fil6 {fill:#898989}
    .fil1 {fill:#1C1B17}
    .fil3 {fill:#1C1B17}
    .fil10 {fill:#102041}
    .fil9 {fill:#56698F;fill-rule:nonzero}
    .fil8 {fill:url(#id1)}
    .fil5 {fill:url(#id2)}
    .fil2 {fill:url(#id3)}
    .fil0 {fill:url(#id4)}
   ]]>
  </style>
   <clipPath id="id0">
    <path d="M23766.73 13748.39c96.42,-81.31 300.63,-252.73 470.79,-380.04 170.17,-127.32 306.29,-210.5 465.1,-253.36 158.83,-42.86 340.35,-45.38 499.16,-46.63 158.81,-1.27 294.95,-1.27 383.17,-1.27 88.24,0 128.58,0 170.17,22.69 41.6,22.69 84.46,68.07 142.45,115.97 57.98,47.9 131.08,98.31 182.75,114.7 51.69,16.38 81.95,-1.27 155.04,-39.08 73.11,-37.82 189.08,-95.79 249.57,-132.33 60.51,-36.57 65.55,-51.69 66.8,-92.03 1.27,-40.34 -1.25,-105.87 20.17,-137.38 21.44,-31.52 66.82,-29 94.55,-41.6 27.73,-12.61 37.82,-40.34 41.59,-69.32 3.79,-29.01 1.27,-59.26 -40.34,-90.76 -41.59,-31.53 -122.24,-64.28 -182.75,-90.75 -60.51,-26.48 -100.84,-46.64 -129.85,-117.24 -28.98,-70.59 -46.63,-191.58 -78.15,-268.47 -31.51,-76.9 -76.87,-109.65 -191.57,-168.89 -114.7,-59.26 -298.74,-144.96 -444.96,-192.86 -146.21,-47.9 -254.6,-57.98 -389.49,-73.11 -134.87,-15.13 -296.2,-35.29 -557.12,-13.86 -260.93,21.42 -621.41,84.43 -899.98,131.08 -278.56,46.64 -475.2,76.89 -594.95,71.85 -119.74,-5.05 -162.58,-45.38 -242,-60.51 -79.41,-15.13 -195.36,-5.04 -307.56,12.61 -112.18,17.64 -220.57,42.85 -341.58,95.8 -121.01,52.94 -254.62,133.6 -356.71,211.12 -102.1,77.52 -172.65,151.88 -251.75,201.03 -79.08,49.16 -166.68,73.11 -213.95,81.31 -47.27,8.18 -54.21,0.62 -6.07,-45.6 48.14,-46.22 151.35,-131.08 214.99,-176.46 63.65,-45.38 87.75,-51.24 -46.44,-46.61 -134.16,4.61 -426.59,19.74 -780.8,28.57 -354.19,8.81 -770.13,11.33 -1101.63,5.04 -331.52,-6.31 -578.57,-21.44 -819.31,-17.65 -240.75,3.78 -475.21,26.47 -695.78,55.47 -220.59,28.98 -427.32,64.26 -668.06,133.6 -240.75,69.32 -515.54,172.67 -805.44,327.71 -289.91,155.03 -594.95,361.76 -1014.68,640.34 -419.74,278.55 -954.18,628.97 -1343.66,853.34 -389.48,224.36 -634.03,322.67 -852.08,392.01 -218.06,69.32 -409.67,109.64 -573.52,126.03 -163.86,16.38 -299.99,8.82 -426.03,-26.48 -126.06,-35.29 -242.01,-98.3 -326.46,-166.37 -84.46,-68.07 -137.41,-141.16 -211.77,-175.19 -74.38,-34.04 -170.16,-29 -230.67,6.29 -60.51,35.3 -85.7,100.83 -84.43,167.65 1.25,66.8 28.96,134.85 117.2,204.19 88.24,69.32 236.97,139.89 384.44,189.06 147.48,49.16 293.7,76.89 453.78,89.49 160.08,12.61 334.02,10.09 544.53,-32.77 210.5,-42.86 457.55,-126.04 699.56,-228.13 242,-102.12 478.99,-223.11 865.95,-448.74 386.96,-225.63 923.92,-555.86 1293.23,-778.97 369.32,-223.11 571.01,-339.06 732.35,-413.42 161.34,-74.38 282.33,-107.16 326.46,-114.72 44.11,-7.56 11.34,10.08 -71.86,73.11 -83.2,63.03 -216.8,171.42 -305.03,276.05 -88.24,104.62 -131.08,205.45 -194.11,327.71 -63.03,122.26 -146.21,265.97 -289.89,424.8 -143.7,158.81 -347.91,332.75 -518.08,452.51 -170.16,119.74 -306.29,185.27 -441.16,236.96 -134.87,51.68 -268.48,89.49 -368.06,109.66 -99.57,20.17 -165.12,22.69 -205.46,85.72 -40.34,63.01 -55.46,186.54 -76.88,326.45 -21.44,139.92 -49.16,296.21 -118.48,446.2 -69.34,150 -180.25,293.7 -257.13,407.15 -76.9,113.43 -119.76,196.61 -146.23,322.67 -26.48,126.03 -36.56,294.95 -37.81,389.48 -1.27,94.53 6.29,114.7 39.07,142.43 32.77,27.73 90.76,63.03 161.35,103.37 70.59,40.34 153.77,85.7 249.57,79.4 95.8,-6.29 189.71,-31.54 351.05,-79.44 161.33,-47.9 469.56,-73.07 570.38,-123.5 100.83,-50.42 8.8,-158.81 -65.56,-211.75 -74.37,-52.94 -210.51,-95.79 -312.6,-109.64 -102.12,-13.88 -170.17,1.23 -215.55,-17.67 -45.38,-18.91 -68.07,-71.84 -80.67,-147.47 -12.61,-75.64 -15.13,-173.94 10.08,-276.04 25.21,-102.11 78.14,-207.98 205.45,-350.41 127.3,-142.43 328.99,-321.43 535.7,-442.43 206.71,-121.01 418.49,-184.02 670.58,-264.7 252.09,-80.67 544.52,-178.98 849.56,-320.14 305.03,-141.18 622.67,-325.22 844.53,-472.7 221.84,-147.47 347.87,-258.38 472.66,-398.29 124.78,-139.93 248.32,-308.83 325.2,-439.93 76.89,-131.09 107.14,-224.36 121.02,-268.47 13.85,-44.12 11.33,-39.08 12.6,13.86 1.25,52.94 6.3,153.77 -13.87,269.74 -20.17,115.97 -65.55,247.05 -113.45,342.85 -47.9,95.8 -98.31,156.29 -129.81,192.86 -31.53,36.54 -44.13,49.15 -27.74,47.9 16.38,-1.27 61.76,-16.4 225.63,-18.92 163.86,-2.52 446.2,7.56 718.46,25.21 272.26,17.65 534.44,42.86 717.21,64.3 182.77,21.42 286.12,39.07 394.53,50.42 108.4,11.34 221.84,16.38 293.68,-7.56 71.86,-23.96 102.09,-76.91 244.53,-231.94 142.43,-155.04 397.06,-412.18 530.66,-554.61 133.62,-142.43 146.23,-170.17 127.31,-98.32 -18.9,71.84 -69.32,243.27 -138.66,389.5 -69.32,146.2 -157.54,267.2 -210.49,335.27 -52.94,68.07 -70.59,83.19 -79.42,112.2 -8.82,28.98 -8.82,71.84 -28.98,224.36 -20.17,152.51 -60.49,414.69 -95.79,666.78 -35.29,252.09 -65.55,494.1 -78.15,661.75 -12.61,167.64 -7.57,260.9 23.94,330.24 31.52,69.32 89.49,114.72 139.91,143.7 50.42,28.99 95.53,70.89 241.74,65.84 146.2,-5.04 384.09,-0.3 574.43,-5.35 190.33,-5.04 330.86,-49.15 405.22,-52.92 74.37,-3.78 92.03,-23.96 49.17,-89.51 -42.85,-65.55 -146.2,-176.46 -252.09,-239.49 -105.88,-63.02 -214.27,-78.15 -286.13,-79.4 -71.85,-1.27 -107.14,11.33 -150,-12.61 -42.86,-23.96 -93.26,-84.45 -122.26,-144.95 -28.99,-60.51 -36.55,-121 -18.9,-178.98 17.64,-57.99 60.49,-113.45 104.6,-172.69 44.12,-59.25 89.5,-122.26 155.05,-254.61 65.55,-132.35 151.25,-334.04 195.36,-453.78 44.13,-119.74 46.65,-157.56 147.48,-204.19 100.84,-46.65 300.01,-102.1 438.65,-148.73 138.66,-46.65 216.8,-84.47 287.39,-137.41 70.59,-52.94 133.6,-120.99 194.1,-189.06 60.51,-68.07 118.49,-136.12 180.25,-252.1 61.78,-115.97 127.31,-279.82 167.65,-439.9 40.33,-160.08 55.46,-316.39 70.59,-306.3 15.12,10.08 30.25,186.56 24.57,344.75 -5.66,158.18 -32.14,298.09 -51.05,372.47 -18.9,74.36 -30.24,83.18 66.18,1.89zm-5658.24 889.86c37.8,-57.35 127.31,-139.3 210.5,-194.74 83.18,-55.47 160.08,-84.47 267.85,-102.12 107.76,-17.64 246.42,-23.94 396.42,-20.78 149.98,3.14 311.33,15.74 414.69,22.05 103.35,6.3 148.73,6.3 172.05,8.2 23.31,1.89 24.58,5.66 -20.17,103.35 -44.76,97.69 -135.5,289.29 -224.36,441.17 -88.87,151.88 -175.84,264.06 -301.88,347.26 -126.05,83.18 -291.17,137.39 -397.68,165.76 -106.52,28.35 -154.4,30.87 -173.94,40.95 -19.55,10.09 -10.71,27.74 37.19,49.79 47.88,22.06 134.87,48.54 224.36,90.76 89.49,42.22 181.5,100.19 256.5,173.94 74.99,73.73 132.98,163.23 201.68,231.3 68.69,68.06 148.1,114.71 243.9,137.4 95.78,22.68 207.98,21.42 305.67,19.53 97.69,-1.89 180.86,-4.41 267.85,26.48 86.97,30.87 177.71,95.15 229.39,145.57 51.67,50.42 73.74,117.22 81.31,139.91 7.56,22.69 2.55,20.31 -189.67,47.41 -192.22,27.09 -581.12,53.44 -774.59,70.45 -193.47,17.01 -193.49,5.66 -270.38,-61.78 -76.88,-67.43 -230.67,-190.95 -397.68,-311.94 -167.01,-121.01 -347.26,-239.51 -466.37,-317.64 -119.12,-78.16 -177.09,-115.97 -218.68,-141.8 -41.61,-25.85 -66.82,-39.72 -74.38,-61.78 -7.56,-22.05 2.52,-52.3 39.09,-132.98 36.54,-80.67 99.55,-211.75 128.55,-330.25 28.99,-118.49 23.95,-224.36 22.06,-299.35 -1.89,-75 -0.63,-119.13 -6.93,-157.56 -6.31,-38.46 -20.17,-71.21 17.65,-128.56zm6102.59 -1056.32c-222.48,164.49 -666.15,492.21 -922.67,672.46 -256.5,180.25 -325.82,213.02 -364.91,231.31 -39.07,18.28 -47.88,22.05 -24.57,27.09 23.32,5.05 78.78,11.36 175.84,36.57 97.05,25.19 235.71,69.32 418.46,174.57 182.78,105.25 409.67,271.63 628.36,395.79 218.7,124.16 429.2,206.08 642.22,293.05 213.03,86.97 428.56,179 585.48,260.93 156.94,81.92 255.25,153.78 364.27,233.19 109.04,79.4 228.8,166.37 313.89,216.16 85.08,49.79 135.48,62.39 336.54,63.03 201.05,0.63 552.72,-10.72 724.77,-25.21 172.07,-14.49 164.5,-32.14 132.37,-80.04 -32.14,-47.9 -88.88,-126.04 -148.11,-192.21 -59.24,-66.18 -121.02,-120.39 -196.02,-155.67 -74.99,-35.29 -163.21,-51.69 -250.82,-49.79 -87.6,1.89 -174.59,22.04 -247.7,30.87 -73.09,8.82 -132.35,6.3 -205.46,-23.96 -73.1,-30.25 -160.08,-88.22 -241.39,-153.13 -81.29,-64.91 -156.91,-136.77 -288.64,-252.73 -131.71,-115.97 -319.53,-276.05 -493.48,-430.45 -173.94,-154.42 -334.02,-303.15 -448.11,-432.34 -114.06,-129.21 -182.11,-238.87 -223.98,-361.79 -41.86,-122.92 -57.5,-259.07 -60.02,-368.73 -2.53,-109.68 8.07,-192.82 12.74,-233.78 4.68,-40.95 3.43,-39.68 -219.06,124.81z"/>
   </clipPath>
  <linearGradient id="id1" gradientUnits="userSpaceOnUse" x1="9648.29" y1="18198.02" x2="30390.93" y2="16120.13">
   <stop offset="0" style="stop-opacity:1; stop-color:#060A13"/>
   <stop offset="1" style="stop-opacity:1; stop-color:#102041"/>
  </linearGradient>
  <linearGradient id="id2" gradientUnits="userSpaceOnUse" x1="24367.75" y1="14200.86" x2="26108.67" y2="15946.06">
   <stop offset="0" style="stop-opacity:1; stop-color:#898989"/>
   <stop offset="1" style="stop-opacity:1; stop-color:#1C1B17"/>
  </linearGradient>
  <linearGradient id="id3" gradientUnits="userSpaceOnUse" x1="18100.12" y1="11765.74" x2="18895.03" y2="14523.6">
   <stop offset="0" style="stop-opacity:1; stop-color:#898989"/>
   <stop offset="1" style="stop-opacity:1; stop-color:#102041"/>
  </linearGradient>
  <linearGradient id="id4" gradientUnits="userSpaceOnUse" x1="18097.45" y1="15074.91" x2="18067.88" y2="12366.14">
   <stop offset="0" style="stop-opacity:1; stop-color:#102041"/>
   <stop offset="1" style="stop-opacity:1; stop-color:#060A13"/>
  </linearGradient>
 </defs>
 <g id="Слой_x0020_1">
  <metadata id="CorelCorpID_0Corel-Layer"/>
  <path class="fil0" d="M23766.73 13748.39c96.42,-81.31 300.63,-252.73 470.79,-380.04 170.17,-127.32 306.29,-210.5 465.1,-253.36 158.83,-42.86 340.35,-45.38 499.16,-46.63 158.81,-1.27 294.95,-1.27 383.17,-1.27 88.24,0 128.58,0 170.17,22.69 41.6,22.69 84.46,68.07 142.45,115.97 57.98,47.9 131.08,98.31 182.75,114.7 51.69,16.38 81.95,-1.27 155.04,-39.08 73.11,-37.82 189.08,-95.79 249.57,-132.33 60.51,-36.57 65.55,-51.69 66.8,-92.03 1.27,-40.34 -1.25,-105.87 20.17,-137.38 21.44,-31.52 66.82,-29 94.55,-41.6 27.73,-12.61 37.82,-40.34 41.59,-69.32 3.79,-29.01 1.27,-59.26 -40.34,-90.76 -41.59,-31.53 -122.24,-64.28 -182.75,-90.75 -60.51,-26.48 -100.84,-46.64 -129.85,-117.24 -28.98,-70.59 -46.63,-191.58 -78.15,-268.47 -31.51,-76.9 -76.87,-109.65 -191.57,-168.89 -114.7,-59.26 -298.74,-144.96 -444.96,-192.86 -146.21,-47.9 -254.6,-57.98 -389.49,-73.11 -134.87,-15.13 -296.2,-35.29 -557.12,-13.86 -260.93,21.42 -621.41,84.43 -899.98,131.08 -278.56,46.64 -475.2,76.89 -594.95,71.85 -119.74,-5.05 -162.58,-45.38 -242,-60.51 -79.41,-15.13 -195.36,-5.04 -307.56,12.61 -112.18,17.64 -220.57,42.85 -341.58,95.8 -121.01,52.94 -254.62,133.6 -356.71,211.12 -102.1,77.52 -172.65,151.88 -251.75,201.03 -79.08,49.16 -166.68,73.11 -213.95,81.31 -47.27,8.18 -54.21,0.62 -6.07,-45.6 48.14,-46.22 151.35,-131.08 214.99,-176.46 63.65,-45.38 87.75,-51.24 -46.44,-46.61 -134.16,4.61 -426.59,19.74 -780.8,28.57 -354.19,8.81 -770.13,11.33 -1101.63,5.04 -331.52,-6.31 -578.57,-21.44 -819.31,-17.65 -240.75,3.78 -475.21,26.47 -695.78,55.47 -220.59,28.98 -427.32,64.26 -668.06,133.6 -240.75,69.32 -515.54,172.67 -805.44,327.71 -289.91,155.03 -594.95,361.76 -1014.68,640.34 -419.74,278.55 -954.18,628.97 -1343.66,853.34 -389.48,224.36 -634.03,322.67 -852.08,392.01 -218.06,69.32 -409.67,109.64 -573.52,126.03 -163.86,16.38 -299.99,8.82 -426.03,-26.48 -126.06,-35.29 -242.01,-98.3 -326.46,-166.37 -84.46,-68.07 -137.41,-141.16 -211.77,-175.19 -74.38,-34.04 -170.16,-29 -230.67,6.29 -60.51,35.3 -85.7,100.83 -84.43,167.65 1.25,66.8 28.96,134.85 117.2,204.19 88.24,69.32 236.97,139.89 384.44,189.06 147.48,49.16 293.7,76.89 453.78,89.49 160.08,12.61 334.02,10.09 544.53,-32.77 210.5,-42.86 457.55,-126.04 699.56,-228.13 242,-102.12 478.99,-223.11 865.95,-448.74 386.96,-225.63 923.92,-555.86 1293.23,-778.97 369.32,-223.11 571.01,-339.06 732.35,-413.42 161.34,-74.38 282.33,-107.16 326.46,-114.72 44.11,-7.56 11.34,10.08 -71.86,73.11 -83.2,63.03 -216.8,171.42 -305.03,276.05 -88.24,104.62 -131.08,205.45 -194.11,327.71 -63.03,122.26 -146.21,265.97 -289.89,424.8 -143.7,158.81 -347.91,332.75 -518.08,452.51 -170.16,119.74 -306.29,185.27 -441.16,236.96 -134.87,51.68 -268.48,89.49 -368.06,109.66 -99.57,20.17 -165.12,22.69 -205.46,85.72 -40.34,63.01 -55.46,186.54 -76.88,326.45 -21.44,139.92 -49.16,296.21 -118.48,446.2 -69.34,150 -180.25,293.7 -257.13,407.15 -76.9,113.43 -119.76,196.61 -146.23,322.67 -26.48,126.03 -36.56,294.95 -37.81,389.48 -1.27,94.53 6.29,114.7 39.07,142.43 32.77,27.73 90.76,63.03 161.35,103.37 70.59,40.34 153.77,85.7 249.57,79.4 95.8,-6.29 189.71,-31.54 351.05,-79.44 161.33,-47.9 469.56,-73.07 570.38,-123.5 100.83,-50.42 8.8,-158.81 -65.56,-211.75 -74.37,-52.94 -210.51,-95.79 -312.6,-109.64 -102.12,-13.88 -170.17,1.23 -215.55,-17.67 -45.38,-18.91 -68.07,-71.84 -80.67,-147.47 -12.61,-75.64 -15.13,-173.94 10.08,-276.04 25.21,-102.11 78.14,-207.98 205.45,-350.41 127.3,-142.43 328.99,-321.43 535.7,-442.43 206.71,-121.01 418.49,-184.02 670.58,-264.7 252.09,-80.67 544.52,-178.98 849.56,-320.14 305.03,-141.18 622.67,-325.22 844.53,-472.7 221.84,-147.47 347.87,-258.38 472.66,-398.29 124.78,-139.93 248.32,-308.83 325.2,-439.93 76.89,-131.09 107.14,-224.36 121.02,-268.47 13.85,-44.12 11.33,-39.08 12.6,13.86 1.25,52.94 6.3,153.77 -13.87,269.74 -20.17,115.97 -65.55,247.05 -113.45,342.85 -47.9,95.8 -98.31,156.29 -129.81,192.86 -31.53,36.54 -44.13,49.15 -27.74,47.9 16.38,-1.27 61.76,-16.4 225.63,-18.92 163.86,-2.52 446.2,7.56 718.46,25.21 272.26,17.65 534.44,42.86 717.21,64.3 182.77,21.42 286.12,39.07 394.53,50.42 108.4,11.34 221.84,16.38 293.68,-7.56 71.86,-23.96 102.09,-76.91 244.53,-231.94 142.43,-155.04 397.06,-412.18 530.66,-554.61 133.62,-142.43 146.23,-170.17 127.31,-98.32 -18.9,71.84 -69.32,243.27 -138.66,389.5 -69.32,146.2 -157.54,267.2 -210.49,335.27 -52.94,68.07 -70.59,83.19 -79.42,112.2 -8.82,28.98 -8.82,71.84 -28.98,224.36 -20.17,152.51 -60.49,414.69 -95.79,666.78 -35.29,252.09 -65.55,494.1 -78.15,661.75 -12.61,167.64 -7.57,260.9 23.94,330.24 31.52,69.32 89.49,114.72 139.91,143.7 50.42,28.99 95.53,70.89 241.74,65.84 146.2,-5.04 384.09,-0.3 574.43,-5.35 190.33,-5.04 330.86,-49.15 405.22,-52.92 74.37,-3.78 92.03,-23.96 49.17,-89.51 -42.85,-65.55 -146.2,-176.46 -252.09,-239.49 -105.88,-63.02 -214.27,-78.15 -286.13,-79.4 -71.85,-1.27 -107.14,11.33 -150,-12.61 -42.86,-23.96 -93.26,-84.45 -122.26,-144.95 -28.99,-60.51 -36.55,-121 -18.9,-178.98 17.64,-57.99 60.49,-113.45 104.6,-172.69 44.12,-59.25 89.5,-122.26 155.05,-254.61 65.55,-132.35 151.25,-334.04 195.36,-453.78 44.13,-119.74 46.65,-157.56 147.48,-204.19 100.84,-46.65 300.01,-102.1 438.65,-148.73 138.66,-46.65 216.8,-84.47 287.39,-137.41 70.59,-52.94 133.6,-120.99 194.1,-189.06 60.51,-68.07 118.49,-136.12 180.25,-252.1 61.78,-115.97 127.31,-279.82 167.65,-439.9 40.33,-160.08 55.46,-316.39 70.59,-306.3 15.12,10.08 30.25,186.56 24.57,344.75 -5.66,158.18 -32.14,298.09 -51.05,372.47 -18.9,74.36 -30.24,83.18 66.18,1.89zm-5658.24 889.86c37.8,-57.35 127.31,-139.3 210.5,-194.74 83.18,-55.47 160.08,-84.47 267.85,-102.12 107.76,-17.64 246.42,-23.94 396.42,-20.78 149.98,3.14 311.33,15.74 414.69,22.05 103.35,6.3 148.73,6.3 172.05,8.2 23.31,1.89 24.58,5.66 -20.17,103.35 -44.76,97.69 -135.5,289.29 -224.36,441.17 -88.87,151.88 -175.84,264.06 -301.88,347.26 -126.05,83.18 -291.17,137.39 -397.68,165.76 -106.52,28.35 -154.4,30.87 -173.94,40.95 -19.55,10.09 -10.71,27.74 37.19,49.79 47.88,22.06 134.87,48.54 224.36,90.76 89.49,42.22 181.5,100.19 256.5,173.94 74.99,73.73 132.98,163.23 201.68,231.3 68.69,68.06 148.1,114.71 243.9,137.4 95.78,22.68 207.98,21.42 305.67,19.53 97.69,-1.89 180.86,-4.41 267.85,26.48 86.97,30.87 177.71,95.15 229.39,145.57 51.67,50.42 73.74,117.22 81.31,139.91 7.56,22.69 2.55,20.31 -189.67,47.41 -192.22,27.09 -581.12,53.44 -774.59,70.45 -193.47,17.01 -193.49,5.66 -270.38,-61.78 -76.88,-67.43 -230.67,-190.95 -397.68,-311.94 -167.01,-121.01 -347.26,-239.51 -466.37,-317.64 -119.12,-78.16 -177.09,-115.97 -218.68,-141.8 -41.61,-25.85 -66.82,-39.72 -74.38,-61.78 -7.56,-22.05 2.52,-52.3 39.09,-132.98 36.54,-80.67 99.55,-211.75 128.55,-330.25 28.99,-118.49 23.95,-224.36 22.06,-299.35 -1.89,-75 -0.63,-119.13 -6.93,-157.56 -6.31,-38.46 -20.17,-71.21 17.65,-128.56zm6102.59 -1056.32c-222.48,164.49 -666.15,492.21 -922.67,672.46 -256.5,180.25 -325.82,213.02 -364.91,231.31 -39.07,18.28 -47.88,22.05 -24.57,27.09 23.32,5.05 78.78,11.36 175.84,36.57 97.05,25.19 235.71,69.32 418.46,174.57 182.78,105.25 409.67,271.63 628.36,395.79 218.7,124.16 429.2,206.08 642.22,293.05 213.03,86.97 428.56,179 585.48,260.93 156.94,81.92 255.25,153.78 364.27,233.19 109.04,79.4 228.8,166.37 313.89,216.16 85.08,49.79 135.48,62.39 336.54,63.03 201.05,0.63 552.72,-10.72 724.77,-25.21 172.07,-14.49 164.5,-32.14 132.37,-80.04 -32.14,-47.9 -88.88,-126.04 -148.11,-192.21 -59.24,-66.18 -121.02,-120.39 -196.02,-155.67 -74.99,-35.29 -163.21,-51.69 -250.82,-49.79 -87.6,1.89 -174.59,22.04 -247.7,30.87 -73.09,8.82 -132.35,6.3 -205.46,-23.96 -73.1,-30.25 -160.08,-88.22 -241.39,-153.13 -81.29,-64.91 -156.91,-136.77 -288.64,-252.73 -131.71,-115.97 -319.53,-276.05 -493.48,-430.45 -173.94,-154.42 -334.02,-303.15 -448.11,-432.34 -114.06,-129.21 -182.11,-238.87 -223.98,-361.79 -41.86,-122.92 -57.5,-259.07 -60.02,-368.73 -2.53,-109.68 8.07,-192.82 12.74,-233.78 4.68,-40.95 3.43,-39.68 -219.06,124.81z"/>
  <g style="clip-path:url(#id0)">
   <g id="_2011427710000">
    <path id="1" class="fil1 str0" d="M11847.35 14413.93c59.42,52.5 149.23,114.66 248.71,178.92 99.49,64.25 208.66,130.57 335.08,177.56 126.41,46.97 270.12,74.61 406.91,79.46 136.79,4.82 266.67,-13.14 448.37,-55.28 181.7,-42.16 415.19,-108.47 690.85,-218.99 275.66,-110.56 593.45,-265.31 953.38,-474.63 359.93,-209.34 762.02,-473.25 1136.48,-692.93 374.42,-219.71 721.24,-395.19 1035.58,-521.61 314.34,-126.43 596.22,-203.79 904.33,-260.44 308.13,-56.66 642.5,-92.58 1115.05,-99.47 472.54,-6.94 1083.26,15.18 1528.17,37.28 444.91,22.12 724.03,44.22 969.96,-12.43 245.95,-56.63 458.74,-192.06 676.36,-273.59 217.62,-81.52 440.08,-109.14 760.62,-151.99 320.56,-42.82 739.23,-100.84 1089.5,-138.86 350.26,-37.99 632.12,-55.96 860.1,-51.11 227.99,4.82 402.09,32.47 556.84,80.84 154.75,48.33 290.17,117.44 362.71,155.43 72.54,37.99 82.22,44.91 96.02,52.5 13.83,7.61 31.78,15.89 53.9,31.78 22.09,15.89 48.36,39.38 68.55,67.49 20.21,28.09 34.34,60.81 45.91,89.36 11.59,28.52 20.61,52.89 34.38,79.06 13.8,26.17 32.36,54.14 65.29,80.94 32.93,26.79 80.26,52.41 115.91,82.03 35.66,29.61 59.67,63.27 80.76,93.61 21.13,30.34 39.36,57.36 36.03,82.63 -3.31,25.23 -28.17,48.73 -27,86.03 1.19,37.28 28.42,88.39 28.42,136.06 0,47.68 -27.23,91.91 -29.8,114.01 -2.56,22.12 19.55,22.12 70.67,-29.67 51.12,-51.82 131.27,-155.46 173.39,-250.81 42.16,-95.32 46.3,-182.36 15.21,-292.9 -31.08,-110.54 -97.4,-244.58 -218.3,-397.25 -120.91,-152.68 -296.39,-324.02 -776.54,-451.12 -480.14,-127.13 -1264.95,-210.04 -1989.66,-205.88 -724.71,4.13 -1389.32,95.33 -2035.26,169.26 -645.96,73.92 -1273.24,130.55 -1870.15,186.52 -596.91,55.97 -1163.42,111.23 -1677.42,196.91 -514,85.65 -975.5,201.71 -1302.27,316.4 -326.77,114.69 -518.82,227.99 -855.97,420.05 -337.11,192.04 -819.33,462.88 -1235.24,723.32 -415.91,260.45 -765.49,510.54 -1077.75,673.59 -312.26,163.03 -587.23,239.03 -830.39,236.27 -243.2,-2.77 -454.59,-84.28 -641.82,-128.49 -187.23,-44.22 -350.27,-51.13 -417.28,-33.18 -67,17.97 -38,60.8 21.41,113.32z"/>
    <path class="fil1 str0" d="M14205.19 17079.2c0,-122.26 65.34,-270.99 173.64,-475.15 108.29,-204.21 259.54,-463.87 418.37,-690.74 158.8,-226.9 325.2,-421.02 525.61,-574.78 200.41,-153.8 434.86,-267.23 639.07,-345.37 204.19,-78.16 378.12,-121.01 524.35,-143.7 146.2,-22.71 264.69,-25.23 383.19,-54.2 118.47,-29.01 236.94,-84.46 326.45,-177.73 89.48,-93.29 149.99,-224.35 201.68,-287.4 51.69,-63.01 94.53,-57.97 155.03,-56.7 60.5,1.24 138.64,-1.27 236.97,-21.43 98.3,-20.19 216.77,-57.97 303.77,-122.26 86.97,-64.31 142.44,-155.04 170.18,-239.51 27.71,-84.45 27.71,-162.6 27.71,-223.09 0,-60.51 0,-103.36 20.18,-90.76 20.17,12.61 60.49,80.66 90.76,109.67 30.23,28.98 50.41,18.88 97.07,-47.9 46.62,-66.83 119.72,-190.35 224.36,-296.23 104.62,-105.87 240.72,-194.11 399.56,-263.42 158.82,-69.33 340.35,-119.76 544.52,-139.91 204.2,-20.18 431.06,-10.09 665.51,11.35 234.46,21.41 476.47,54.17 683.18,50.4 206.71,-3.79 378.14,-44.13 535.73,-107.12 157.55,-63.04 301.23,-148.74 414.68,-225.63 113.44,-76.89 196.62,-144.98 250.83,-204.21 54.19,-59.25 79.42,-109.65 92.02,-94.53 12.6,15.13 12.6,95.8 16.38,171.42 3.79,75.63 11.32,146.21 -0.01,245.81 -11.35,99.56 -41.58,228.12 -80.67,355.43 -39.07,127.33 -86.97,253.36 -129.81,366.81 -42.89,113.44 -80.66,214.27 -131.09,325.2 -50.42,110.9 -113.47,231.91 -153.77,341.59 -40.36,109.66 -57.99,207.96 -69.35,315.12 -11.33,107.12 -16.36,223.08 -55.47,409.64 -39.06,186.55 -112.18,443.7 -110.91,526.9 1.26,83.17 76.88,-7.59 148.75,-100.89 71.86,-93.26 139.9,-189.04 200.41,-296.17 60.5,-107.14 113.43,-225.64 152.49,-325.21 39.1,-99.58 64.29,-180.26 94.55,-248.31 30.27,-68.07 65.56,-123.54 113.47,-163.86 47.89,-40.33 108.38,-65.56 236.95,-127.3 128.55,-61.78 325.2,-160.1 453.77,-233.21 128.57,-73.11 189.05,-120.99 239.48,-186.55 50.44,-65.54 90.77,-148.71 117.22,-223.08 26.49,-74.39 39.08,-139.91 18.93,-243.27 -20.19,-103.36 -73.12,-244.55 -69.35,-254.62 3.79,-10.08 64.3,110.91 107.15,221.83 42.86,110.95 68.06,211.76 91.99,230.68 23.97,18.91 46.66,-44.13 57.99,-127.32 11.36,-83.2 11.36,-186.56 -3.77,-293.69 -15.13,-107.16 -45.36,-218.07 -71.83,-286.13 -26.49,-68.06 -49.16,-93.28 -60.52,-142.41 -11.34,-49.17 -11.34,-122.26 18.92,-143.69 30.26,-21.44 90.73,8.79 147.47,60.49 56.72,51.68 109.66,124.76 142.44,178.99 32.77,54.18 45.36,89.48 105.87,84.45 60.49,-5.05 168.9,-50.42 287.38,-117.22 118.49,-66.8 247.06,-155.05 340.34,-265.96 93.26,-110.94 151.24,-244.56 196.63,-346.64 45.38,-102.1 78.13,-172.66 95.8,-132.34 17.64,40.32 20.17,191.58 52.94,306.29 32.79,114.7 95.79,192.83 126.04,214.27 30.24,21.42 27.72,-13.86 22.68,-66.79 -5.02,-52.94 -12.59,-123.55 6.31,-187.82 18.89,-64.28 64.27,-122.27 107.15,-157.56 42.85,-35.3 83.19,-47.89 126.04,-47.89 42.87,0 88.22,12.59 127.29,41.59 39.1,28.98 71.85,74.35 60.52,138.65 -11.35,64.27 -66.81,147.48 -114.7,231.95 -47.92,84.44 -88.23,170.15 -109.67,233.17 -21.42,63.03 -23.93,103.33 -1.25,151.25 22.69,47.9 70.58,103.36 129.82,92.03 59.24,-11.34 129.85,-89.51 177.73,-148.74 47.91,-59.26 73.12,-99.59 144.94,-107.16 71.86,-7.54 190.34,17.66 303.79,85.72 113.45,68.06 221.85,178.99 323.75,250.94 101.92,71.93 197.35,104.93 228.85,157.88 31.51,52.92 -0.89,125.84 -49.89,178.66 -48.94,52.83 -114.48,85.61 -221.62,73.01 -107.14,-12.61 -255.88,-70.58 -380.66,-102.09 -124.8,-31.52 -225.61,-36.57 -351.67,-44.13 -126.05,-7.56 -277.31,-17.64 -455.04,-5.03 -177.72,12.59 -381.93,47.88 -621.41,168.89 -239.5,120.99 -514.28,327.72 -818.07,559.66 -303.75,231.92 -636.51,489.08 -881.07,693.25 -244.51,204.21 -400.8,355.46 -335.27,541.99 65.55,186.55 352.94,408.42 569.75,623.96 216.79,215.54 363,424.78 357.96,560.92 -5.05,136.11 -161.34,199.13 -475.2,265.94 -313.85,66.82 -785.28,137.38 -1147.02,74.38 -361.76,-63.03 -613.85,-259.68 -747.46,-490.33 -133.63,-230.69 -148.74,-495.36 -133.63,-757.55 15.15,-262.19 60.54,-521.83 47.9,-472.66 -12.59,49.16 -83.17,407.1 -157.55,782.74 -74.39,375.61 -152.51,768.89 -345.38,979.37 -192.84,210.53 -500.4,238.24 -983.16,220.59 -482.75,-17.64 -1140.7,-80.65 -1518.86,-214.26 -378.13,-133.64 -476.46,-337.82 -637.78,-410.93 -161.37,-73.12 -385.74,-15.13 -623.94,177.73 -238.26,192.86 -490.33,520.55 -782.77,678.12 -292.42,157.57 -625.18,144.95 -872.22,146.22 -247.08,1.25 -408.4,16.39 -521.73,-23.96 -113.35,-40.34 -178.69,-136.14 -178.69,-258.41z"/>
    <path class="fil2" d="M17101.95 13168.04c-63.66,76.88 -167,190.31 -218.68,265.31 -51.69,75 -51.69,111.57 28.99,70.61 80.67,-40.99 242.01,-159.46 281.72,-172.7 39.7,-13.24 -42.24,78.79 -107.15,159.47 -64.92,80.65 -112.8,149.98 -108.4,146.22 4.41,-3.8 61.14,-80.71 107.78,-124.8 46.64,-44.13 83.18,-55.47 69.33,-16.41 -13.87,39.07 -78.17,128.58 -120.38,198.55 -42.23,69.95 -62.41,120.38 -30.25,104.62 32.14,-15.76 116.6,-97.71 126.05,-83.19 9.45,14.48 -56.11,125.4 -104,207.35 -47.89,81.92 -78.13,134.84 -42.85,116.58 35.29,-18.28 136.13,-107.77 276.67,-209.23 140.55,-101.47 320.8,-214.91 441.16,-288.03 120.38,-73.11 180.88,-105.88 223.1,-92.64 42.24,13.22 66.19,72.48 79.43,59.23 13.22,-13.24 15.74,-98.93 38.43,-125.4 22.71,-26.48 65.56,6.28 92.65,33.39 27.09,27.1 38.46,48.54 47.28,2.53 8.82,-46.01 15.12,-159.45 81.28,-249.58 66.18,-90.13 192.24,-156.93 326.47,-206.72 134.23,-49.79 276.69,-82.55 455.68,-104.62 178.98,-22.05 394.51,-33.41 709.63,-15.77 315.13,17.66 729.84,64.3 1021.63,80.07 291.79,15.73 460.71,0.62 649.15,-65.55 188.43,-66.19 396.42,-183.41 538.85,-286.76 142.44,-103.36 219.33,-192.87 276.06,-185.31 56.7,7.57 93.28,112.21 110.29,174.59 17.02,62.4 14.5,82.54 59.22,87.58 44.74,5.06 136.77,-5.04 265.96,30.27 129.22,35.29 295.58,115.96 423.53,220.58 127.94,104.61 217.45,233.19 276.05,343.49 58.62,110.28 86.34,202.3 109.66,206.71 23.32,4.4 42.23,-78.77 9.45,-224.36 -32.76,-145.58 -117.23,-353.57 -208.61,-502.92 -91.39,-149.39 -189.68,-240.14 -280.45,-306.3 -90.76,-66.18 -173.94,-107.79 -233.83,-138.66 -59.87,-30.89 -96.42,-51.06 -47.26,-59.23 49.15,-8.21 184.04,-4.43 296.21,25.82 112.19,30.26 201.68,86.98 279.2,149.38 77.51,62.41 143.06,130.45 174.58,125.41 31.52,-5.05 28.99,-83.19 37.82,-134.86 8.81,-51.68 28.99,-76.9 191.59,-121.01 162.6,-44.13 467.63,-107.13 650.41,-136.76 182.76,-29.64 243.25,-25.84 276.68,-47.26 33.4,-21.44 39.68,-68.08 119.1,-92.67 79.41,-24.57 231.94,-27.09 339.07,-17.64 107.14,9.45 168.92,30.88 204.83,64.3 35.94,33.39 46.02,78.77 40.34,120.37 -5.68,41.59 -27.09,79.4 -4.43,98.93 22.69,19.54 89.52,20.8 175.21,22.08 85.71,1.25 190.34,2.51 271.01,3.14 80.68,0.64 137.4,0.64 186.55,-1.24 49.17,-1.91 90.77,-5.69 83.2,-38.45 -7.55,-32.78 -64.29,-94.56 -172.71,-152.53 -108.37,-57.98 -268.48,-112.19 -450.6,-148.1 -182.14,-35.94 -386.35,-53.59 -586.12,-53.59 -199.78,0 -395.16,17.65 -634.04,56.74 -238.84,39.06 -521.19,99.57 -726.02,123.52 -204.83,23.95 -332.14,11.34 -468.84,-6.58 -136.66,-17.92 -282.71,-41.18 -463.37,5 -180.61,46.18 -395.81,161.78 -572.53,272.71 -176.7,110.93 -314.88,217.17 -449.38,248.51 -134.49,31.34 -265.25,-12.23 -749.15,-53.54 -483.86,-41.31 -1320.82,-80.41 -1927.1,-56.43 -606.3,23.93 -981.93,110.91 -1373.29,238.22 -391.39,127.29 -798.52,294.94 -1135.06,473.3 -336.56,178.37 -602.51,367.43 -916.38,577.31 -313.87,209.88 -675.61,440.53 -1000.81,604.41 -325.21,163.83 -613.86,260.89 -816.17,327.71 -202.31,66.8 -318.25,103.35 -462.57,119.12 -144.35,15.75 -317.04,10.71 -450.01,-1.26 -132.99,-11.99 -226.25,-30.89 -305.65,-63.67 -79.43,-32.75 -144.98,-79.41 -211.14,-134.86 -66.19,-55.45 -133.02,-119.76 -182.81,-137.39 -49.77,-17.65 -82.53,11.34 -77.48,49.79 5.04,38.44 47.88,86.32 148.09,144.96 100.21,58.6 257.77,127.93 470.16,172.67 212.38,44.75 479.62,64.91 784.66,7.56 305.02,-57.35 647.89,-192.22 940.31,-326.44 292.44,-134.25 534.43,-267.86 864.05,-467 329.61,-199.17 746.85,-463.89 1068.89,-646.03 322.04,-182.13 548.95,-281.7 702.1,-344.75 153.14,-63.02 232.56,-89.46 273.53,-92.64 40.96,-3.15 43.48,17.02 32.77,47.28 -10.74,30.24 -34.66,70.58 -98.34,147.49z"/>
    <path class="fil3 str0" d="M24391.96 13365.17c-367.61,50.3 -819.03,352.12 -1129.87,602.35 -310.85,250.21 -481.1,448.85 -522.38,582.98 -41.27,134.14 46.44,203.79 523.69,470.37 477.24,266.61 1344.04,730.14 2021.18,975.2 677.16,245.08 1164.65,271.66 1559.31,278.5 394.65,6.86 696.47,-6.04 724.86,-243.36 28.36,-237.34 -216.7,-699.09 -543.03,-1035.73 -326.31,-336.64 -733.89,-548.17 -1030.56,-740.35 -296.63,-192.17 -482.37,-365.02 -717.12,-552.04 -234.74,-187.02 -518.49,-388.22 -886.08,-337.92z"/>
   </g>
  </g>
  <path class="fil4" d="M23766.73 13748.39c96.42,-81.31 300.63,-252.73 470.79,-380.04 170.17,-127.32 306.29,-210.5 465.1,-253.36 158.83,-42.86 340.35,-45.38 499.16,-46.63 158.81,-1.27 294.95,-1.27 383.17,-1.27 88.24,0 128.58,0 170.17,22.69 41.6,22.69 84.46,68.07 142.45,115.97 57.98,47.9 131.08,98.31 182.75,114.7 51.69,16.38 81.95,-1.27 155.04,-39.08 73.11,-37.82 189.08,-95.79 249.57,-132.33 60.51,-36.57 65.55,-51.69 66.8,-92.03 1.27,-40.34 -1.25,-105.87 20.17,-137.38 21.44,-31.52 66.82,-29 94.55,-41.6 27.73,-12.61 37.82,-40.34 41.59,-69.32 3.79,-29.01 1.27,-59.26 -40.34,-90.76 -41.59,-31.53 -122.24,-64.28 -182.75,-90.75 -60.51,-26.48 -100.84,-46.64 -129.85,-117.24 -28.98,-70.59 -46.63,-191.58 -78.15,-268.47 -31.51,-76.9 -76.87,-109.65 -191.57,-168.89 -114.7,-59.26 -298.74,-144.96 -444.96,-192.86 -146.21,-47.9 -254.6,-57.98 -389.49,-73.11 -134.87,-15.13 -296.2,-35.29 -557.12,-13.86 -260.93,21.42 -621.41,84.43 -899.98,131.08 -278.56,46.64 -475.2,76.89 -594.95,71.85 -119.74,-5.05 -162.58,-45.38 -242,-60.51 -79.41,-15.13 -195.36,-5.04 -307.56,12.61 -112.18,17.64 -220.57,42.85 -341.58,95.8 -121.01,52.94 -254.62,133.6 -356.71,211.12 -102.1,77.52 -172.65,151.88 -251.75,201.03 -79.08,49.16 -166.68,73.11 -213.95,81.31 -47.27,8.18 -54.21,0.62 -6.07,-45.6 48.14,-46.22 151.35,-131.08 214.99,-176.46 63.65,-45.38 87.75,-51.24 -46.44,-46.61 -134.16,4.61 -426.59,19.74 -780.8,28.57 -354.19,8.81 -770.13,11.33 -1101.63,5.04 -331.52,-6.31 -578.57,-21.44 -819.31,-17.65 -240.75,3.78 -475.21,26.47 -695.78,55.47 -220.59,28.98 -427.32,64.26 -668.06,133.6 -240.75,69.32 -515.54,172.67 -805.44,327.71 -289.91,155.03 -594.95,361.76 -1014.68,640.34 -419.74,278.55 -954.18,628.97 -1343.66,853.34 -389.48,224.36 -634.03,322.67 -852.08,392.01 -218.06,69.32 -409.67,109.64 -573.52,126.03 -163.86,16.38 -299.99,8.82 -426.03,-26.48 -126.06,-35.29 -242.01,-98.3 -326.46,-166.37 -84.46,-68.07 -137.41,-141.16 -211.77,-175.19 -74.38,-34.04 -170.16,-29 -230.67,6.29 -60.51,35.3 -85.7,100.83 -84.43,167.65 1.25,66.8 28.96,134.85 117.2,204.19 88.24,69.32 236.97,139.89 384.44,189.06 147.48,49.16 293.7,76.89 453.78,89.49 160.08,12.61 334.02,10.09 544.53,-32.77 210.5,-42.86 457.55,-126.04 699.56,-228.13 242,-102.12 478.99,-223.11 865.95,-448.74 386.96,-225.63 923.92,-555.86 1293.23,-778.97 369.32,-223.11 571.01,-339.06 732.35,-413.42 161.34,-74.38 282.33,-107.16 326.46,-114.72 44.11,-7.56 11.34,10.08 -71.86,73.11 -83.2,63.03 -216.8,171.42 -305.03,276.05 -88.24,104.62 -131.08,205.45 -194.11,327.71 -63.03,122.26 -146.21,265.97 -289.89,424.8 -143.7,158.81 -347.91,332.75 -518.08,452.51 -170.16,119.74 -306.29,185.27 -441.16,236.96 -134.87,51.68 -268.48,89.49 -368.06,109.66 -99.57,20.17 -165.12,22.69 -205.46,85.72 -40.34,63.01 -55.46,186.54 -76.88,326.45 -21.44,139.92 -49.16,296.21 -118.48,446.2 -69.34,150 -180.25,293.7 -257.13,407.15 -76.9,113.43 -119.76,196.61 -146.23,322.67 -26.48,126.03 -36.56,294.95 -37.81,389.48 -1.27,94.53 6.29,114.7 39.07,142.43 32.77,27.73 90.76,63.03 161.35,103.37 70.59,40.34 153.77,85.7 249.57,79.4 95.8,-6.29 189.71,-31.54 351.05,-79.44 161.33,-47.9 469.56,-73.07 570.38,-123.5 100.83,-50.42 8.8,-158.81 -65.56,-211.75 -74.37,-52.94 -210.51,-95.79 -312.6,-109.64 -102.12,-13.88 -170.17,1.23 -215.55,-17.67 -45.38,-18.91 -68.07,-71.84 -80.67,-147.47 -12.61,-75.64 -15.13,-173.94 10.08,-276.04 25.21,-102.11 78.14,-207.98 205.45,-350.41 127.3,-142.43 328.99,-321.43 535.7,-442.43 206.71,-121.01 418.49,-184.02 670.58,-264.7 252.09,-80.67 544.52,-178.98 849.56,-320.14 305.03,-141.18 622.67,-325.22 844.53,-472.7 221.84,-147.47 347.87,-258.38 472.66,-398.29 124.78,-139.93 248.32,-308.83 325.2,-439.93 76.89,-131.09 107.14,-224.36 121.02,-268.47 13.85,-44.12 11.33,-39.08 12.6,13.86 1.25,52.94 6.3,153.77 -13.87,269.74 -20.17,115.97 -65.55,247.05 -113.45,342.85 -47.9,95.8 -98.31,156.29 -129.81,192.86 -31.53,36.54 -44.13,49.15 -27.74,47.9 16.38,-1.27 61.76,-16.4 225.63,-18.92 163.86,-2.52 446.2,7.56 718.46,25.21 272.26,17.65 534.44,42.86 717.21,64.3 182.77,21.42 286.12,39.07 394.53,50.42 108.4,11.34 221.84,16.38 293.68,-7.56 71.86,-23.96 102.09,-76.91 244.53,-231.94 142.43,-155.04 397.06,-412.18 530.66,-554.61 133.62,-142.43 146.23,-170.17 127.31,-98.32 -18.9,71.84 -69.32,243.27 -138.66,389.5 -69.32,146.2 -157.54,267.2 -210.49,335.27 -52.94,68.07 -70.59,83.19 -79.42,112.2 -8.82,28.98 -8.82,71.84 -28.98,224.36 -20.17,152.51 -60.49,414.69 -95.79,666.78 -35.29,252.09 -65.55,494.1 -78.15,661.75 -12.61,167.64 -7.57,260.9 23.94,330.24 31.52,69.32 89.49,114.72 139.91,143.7 50.42,28.99 95.53,70.89 241.74,65.84 146.2,-5.04 384.09,-0.3 574.43,-5.35 190.33,-5.04 330.86,-49.15 405.22,-52.92 74.37,-3.78 92.03,-23.96 49.17,-89.51 -42.85,-65.55 -146.2,-176.46 -252.09,-239.49 -105.88,-63.02 -214.27,-78.15 -286.13,-79.4 -71.85,-1.27 -107.14,11.33 -150,-12.61 -42.86,-23.96 -93.26,-84.45 -122.26,-144.95 -28.99,-60.51 -36.55,-121 -18.9,-178.98 17.64,-57.99 60.49,-113.45 104.6,-172.69 44.12,-59.25 89.5,-122.26 155.05,-254.61 65.55,-132.35 151.25,-334.04 195.36,-453.78 44.13,-119.74 46.65,-157.56 147.48,-204.19 100.84,-46.65 300.01,-102.1 438.65,-148.73 138.66,-46.65 216.8,-84.47 287.39,-137.41 70.59,-52.94 133.6,-120.99 194.1,-189.06 60.51,-68.07 118.49,-136.12 180.25,-252.1 61.78,-115.97 127.31,-279.82 167.65,-439.9 40.33,-160.08 55.46,-316.39 70.59,-306.3 15.12,10.08 30.25,186.56 24.57,344.75 -5.66,158.18 -32.14,298.09 -51.05,372.47 -18.9,74.36 -30.24,83.18 66.18,1.89zm-5658.24 889.86c37.8,-57.35 127.31,-139.3 210.5,-194.74 83.18,-55.47 160.08,-84.47 267.85,-102.12 107.76,-17.64 246.42,-23.94 396.42,-20.78 149.98,3.14 311.33,15.74 414.69,22.05 103.35,6.3 148.73,6.3 172.05,8.2 23.31,1.89 24.58,5.66 -20.17,103.35 -44.76,97.69 -135.5,289.29 -224.36,441.17 -88.87,151.88 -175.84,264.06 -301.88,347.26 -126.05,83.18 -291.17,137.39 -397.68,165.76 -106.52,28.35 -154.4,30.87 -173.94,40.95 -19.55,10.09 -10.71,27.74 37.19,49.79 47.88,22.06 134.87,48.54 224.36,90.76 89.49,42.22 181.5,100.19 256.5,173.94 74.99,73.73 132.98,163.23 201.68,231.3 68.69,68.06 148.1,114.71 243.9,137.4 95.78,22.68 207.98,21.42 305.67,19.53 97.69,-1.89 180.86,-4.41 267.85,26.48 86.97,30.87 177.71,95.15 229.39,145.57 51.67,50.42 73.74,117.22 81.31,139.91 7.56,22.69 2.55,20.31 -189.67,47.41 -192.22,27.09 -581.12,53.44 -774.59,70.45 -193.47,17.01 -193.49,5.66 -270.38,-61.78 -76.88,-67.43 -230.67,-190.95 -397.68,-311.94 -167.01,-121.01 -347.26,-239.51 -466.37,-317.64 -119.12,-78.16 -177.09,-115.97 -218.68,-141.8 -41.61,-25.85 -66.82,-39.72 -74.38,-61.78 -7.56,-22.05 2.52,-52.3 39.09,-132.98 36.54,-80.67 99.55,-211.75 128.55,-330.25 28.99,-118.49 23.95,-224.36 22.06,-299.35 -1.89,-75 -0.63,-119.13 -6.93,-157.56 -6.31,-38.46 -20.17,-71.21 17.65,-128.56zm6102.59 -1056.32c-222.48,164.49 -666.15,492.21 -922.67,672.46 -256.5,180.25 -325.82,213.02 -364.91,231.31 -39.07,18.28 -47.88,22.05 -24.57,27.09 23.32,5.05 78.78,11.36 175.84,36.57 97.05,25.19 235.71,69.32 418.46,174.57 182.78,105.25 409.67,271.63 628.36,395.79 218.7,124.16 429.2,206.08 642.22,293.05 213.03,86.97 428.56,179 585.48,260.93 156.94,81.92 255.25,153.78 364.27,233.19 109.04,79.4 228.8,166.37 313.89,216.16 85.08,49.79 135.48,62.39 336.54,63.03 201.05,0.63 552.72,-10.72 724.77,-25.21 172.07,-14.49 164.5,-32.14 132.37,-80.04 -32.14,-47.9 -88.88,-126.04 -148.11,-192.21 -59.24,-66.18 -121.02,-120.39 -196.02,-155.67 -74.99,-35.29 -163.21,-51.69 -250.82,-49.79 -87.6,1.89 -174.59,22.04 -247.7,30.87 -73.09,8.82 -132.35,6.3 -205.46,-23.96 -73.1,-30.25 -160.08,-88.22 -241.39,-153.13 -81.29,-64.91 -156.91,-136.77 -288.64,-252.73 -131.71,-115.97 -319.53,-276.05 -493.48,-430.45 -173.94,-154.42 -334.02,-303.15 -448.11,-432.34 -114.06,-129.21 -182.11,-238.87 -223.98,-361.79 -41.86,-122.92 -57.5,-259.07 -60.02,-368.73 -2.53,-109.68 8.07,-192.82 12.74,-233.78 4.68,-40.95 3.43,-39.68 -219.06,124.81z"/>
  <path class="fil5" d="M24318.83 13871.44c-3.77,55.46 22.71,283.62 94.55,478.99 71.84,195.38 189.07,357.96 343.47,506.07 154.41,148.11 346.01,281.71 529.4,421.62 183.4,139.92 358.61,286.14 478.35,376.27 119.75,90.12 184.04,124.15 131.73,56.71 -52.3,-67.43 -221.22,-236.33 -359.88,-367.43 -138.64,-131.09 -247.03,-224.36 -376.88,-338.42 -129.82,-114.09 -281.07,-248.96 -395.16,-361.14 -114.06,-112.18 -190.95,-201.67 -247.05,-296.83 -56.08,-95.17 -91.37,-196 -126.03,-305.02 -34.66,-109.04 -68.71,-226.28 -72.5,-170.82z"/>
  <path class="fil6" d="M26157.52 12406.17c-46.33,-7.56 -137.07,-8.83 -193.17,-4.73 -56.08,4.1 -77.52,13.55 -86.02,24.9 -8.51,11.34 -4.09,24.56 25.21,37.16 29.31,12.61 83.52,24.6 134.25,39.72 50.73,15.13 98,33.4 123.82,51.04 25.85,17.65 30.27,34.68 46.02,55.49 15.76,20.78 42.86,45.36 94.84,69.93 52,24.58 128.9,49.17 187.5,72.5 58.62,23.31 98.96,45.38 120.38,52.31 21.44,6.93 23.96,-1.27 7.26,-22.08 -16.71,-20.8 -52.62,-54.19 -108.72,-86.02 -56.1,-31.83 -132.35,-62.07 -182.46,-89.17 -50.1,-27.11 -74.06,-51.05 -89.49,-78.15 -15.44,-27.11 -22.38,-57.35 -26.79,-79.41 -4.41,-22.07 -6.31,-35.93 -52.63,-43.49z"/>
  <path class="fil7" d="M24801.2 11953.04c57.68,1.89 159.16,14.5 230.06,27.1 70.9,12.61 111.23,25.21 128.88,37.51 17.65,12.28 12.61,24.27 -16.7,31.19 -29.31,6.93 -82.87,8.84 -121.33,27.43 -38.45,18.59 -61.75,53.87 -69.64,123.21 -7.87,69.32 -0.31,172.68 3.46,231.94 3.79,59.23 3.79,74.34 -16.07,50.09 -19.84,-24.27 -59.56,-87.93 -100.53,-160.08 -40.96,-72.17 -83.18,-152.84 -103.99,-213.02 -20.78,-60.2 -20.16,-99.9 -12.91,-124.17 7.25,-24.27 21.11,-33.08 78.77,-31.2z"/>
  <path class="fil8" d="M8087.69 18906.58c995.77,-262.18 3249.49,-862.16 4567.06,-1196.49 1317.55,-334.33 1698.97,-403 2276.27,-506.35 577.28,-103.36 1350.47,-241.41 2245.99,-365.74 895.5,-124.34 1913.37,-234.96 2979.72,-330.77 1066.35,-95.8 2181.21,-176.75 3396.6,-229.83 1215.39,-53.09 2531.33,-78.3 4021.19,-106.04 1489.88,-27.73 3153.7,-57.98 4111.65,-73.11 957.96,-15.12 1210.06,-15.12 1265.52,-7.56 55.46,7.56 -85.72,22.69 -1822.65,138.66 -1736.91,115.95 -5069.59,332.77 -7512.37,529.39 -2442.79,196.63 -3995.7,373.11 -5447.74,539.48 -1452.07,166.38 -2803.3,322.69 -4545.26,607.55 -1741.97,284.85 -3874.7,698.29 -5072.13,942.82 -1197.45,244.53 -1459.63,320.16 -463.85,57.99z"/>
  <path class="fil9" d="M16308.11 24177.25l42.59 0 254.77 736.52c18.71,54.89 39.39,99.94 61.79,134.89 22.15,34.96 49.48,53.17 81.73,54.65l0 33.97 -260.44 0 0 -33.97 17.72 0c8.62,0 13.05,-8.12 13.05,-24.12 0,-4.93 -0.99,-10.34 -2.96,-16.25l-86.65 -250.59 -313.85 0c-33.73,93.29 -50.47,162.96 -50.47,208.74 0,23.88 7.88,43.82 23.39,59.08 15.75,15.51 36.19,23.14 61.79,23.14l38.15 0 0 33.97 -322.96 0 0 -33.97c53.66,-2.95 102.89,-60.31 146.96,-172.31l295.39 -753.75zm-25.85 209.24l-149.42 381.55 281.61 0 -132.19 -381.55zm884.71 -172.32l567.64 0c127.02,0 222.29,30.28 285.55,90.84 63.27,60.8 95.02,151.88 95.02,273.73 0,154.83 -51.45,286.78 -154.1,395.33 -102.89,108.81 -241.48,163.21 -415.76,163.21l-378.35 0 0 -33.97c43.07,-0.49 72.12,-8.86 86.89,-25.11 15.02,-16 22.4,-46.03 22.4,-90.09l0 -624.76c0,-47.27 -8.12,-77.79 -24.37,-92.31 -16.49,-14.28 -44.55,-21.91 -84.92,-22.9l0 -33.97zm242.22 88.13l0 720.51c77.29,44.81 152.37,67.21 225.73,67.21 103.14,0 186.34,-38.65 249.61,-116.19 63.26,-77.3 94.77,-177.98 94.77,-301.55 0,-124.06 -27.57,-225.98 -82.96,-305.73 -55.14,-80 -147.69,-119.88 -277.42,-119.88 -84.43,0 -154.34,18.46 -209.73,55.63zm1154.25 -88.13l256.99 0 0 33.97c-18.71,0.5 -28.06,7.64 -28.06,21.17 0,7.39 2.7,18.96 7.87,34.96l229.18 658.97 146.47 -371.21c40.37,-103.14 60.55,-185.36 60.55,-247.14 0,-32.25 -8.12,-56.38 -24.12,-72.13 -16.25,-16 -46.03,-24.12 -89.85,-24.62l0 -33.97 323.95 0 0 33.97c-52.44,0.5 -102.16,60.07 -149.18,178.72l-294.65 741.44 -42.59 0 -261.67 -753.01c-38.15,-110.53 -82.95,-166.16 -134.89,-167.15l0 -33.97zm1655.18 33.97c-43.08,0.99 -72.13,9.36 -86.9,25.11 -15.01,15.76 -22.4,45.79 -22.4,90.1l0 624.76c0,74.09 36.44,112.49 109.3,115.2l0 33.97 -351.52 0 0 -33.97c43.08,-0.49 72.13,-8.86 86.9,-25.11 15.01,-16 22.4,-46.03 22.4,-90.09l0 -624.76c0,-47.27 -8.13,-77.79 -24.37,-92.31 -16.5,-14.28 -44.56,-21.91 -84.93,-22.9l0 -33.97 351.52 0 0 33.97zm569.86 348.32c-22.4,-21.17 -39.14,-43.57 -50.46,-67.69 -11.33,-24.13 -16.99,-49.23 -16.99,-75.82 0,-69.17 31.76,-129.73 95.51,-181.67 63.51,-51.94 138.1,-77.78 223.52,-77.78 42.83,0 99.94,12.3 171.33,36.92l0 225.98 -53.17 0c-3.94,-63.02 -23.14,-114.47 -57.85,-154.35 -34.47,-39.87 -77.05,-59.81 -127.02,-59.81 -40.86,0 -74.84,12.55 -101.42,37.66 -26.83,25.11 -40.13,56.86 -40.13,95.26 0,36.93 13.3,71.39 40.13,103.64 26.34,32 89.36,81.48 189.05,148.68 75.57,50.71 126.53,91.57 152.87,123.08 25.84,31.75 38.89,70.65 38.89,116.93 0,75.57 -34.71,143.02 -104.37,201.85 -69.66,59.08 -148.68,88.62 -236.81,88.62 -63.26,0 -134.16,-14.77 -212.68,-44.31l0 -261.43 51.69 0c0,73.11 21.17,134.16 63.76,183.4 42.34,48.98 92.8,73.6 151.14,73.6 53.42,0 95.76,-15.51 126.77,-46.77 31.27,-31.27 46.77,-70.9 46.77,-119.15 0,-41.84 -12.8,-78.52 -38.4,-110.28 -25.6,-31.26 -83.69,-76.8 -174.53,-136.86 -49.72,-32.74 -95.75,-65.97 -137.6,-99.7zm1446.2 -402.96c80.74,0 152.13,15.75 214.41,47.51 62.03,31.75 116.43,81.47 163.2,148.68 46.53,67.45 69.91,148.19 69.91,242.47 0,102.4 -29.04,195.94 -86.89,280.87 -58.1,84.92 -125.79,146.96 -203.09,186.09 -77.04,39.14 -158.03,58.84 -242.71,58.84 -121.36,0 -224.5,-41.6 -309.18,-125.05 -84.68,-83.45 -127.02,-187.09 -127.02,-310.66 0,-142.77 52.93,-266.59 158.78,-371.46 105.84,-104.86 226.71,-157.29 362.59,-157.29zm-90.34 66.46c-88.86,0 -162.47,31.26 -220.81,93.54 -58.34,62.53 -87.63,144.99 -87.63,247.39 0,150.9 43.82,270.78 131.45,359.89 87.88,89.11 183.88,133.67 288.01,133.67 83.2,0 154.59,-31.26 214.41,-94.04 59.81,-62.52 89.84,-143.02 89.84,-241.23 0,-92.07 -19.93,-178.23 -59.81,-258.97 -39.88,-80.74 -94.28,-140.8 -162.96,-180.68 -68.68,-39.63 -132.93,-59.57 -192.5,-59.57zm1003.11 -45.79l457.86 0c68.18,0 119.14,13.3 153.11,39.64 33.72,26.58 50.71,66.21 50.71,119.38 0,59.08 -19.2,114.47 -57.36,165.67 -38.15,51.45 -95.51,98.96 -171.82,142.77l160.01 249.12c72.12,111.76 138.59,169.11 199.39,172.56l0 33.97 -172.32 0c-34.46,0 -64.98,-20.68 -91.81,-62.03l-285.55 -444.32 0 357.18c0,74.09 36.43,112.49 109.29,115.2l0 33.97 -351.51 0 0 -33.97c43.07,-0.49 72.12,-8.86 86.89,-25.11 15.02,-16 22.4,-46.03 22.4,-90.09l0 -624.76c0,-47.27 -8.12,-77.79 -24.37,-92.31 -16.49,-14.28 -44.55,-21.91 -84.92,-22.9l0 -33.97zm242.22 70.16l0 301.3c56.12,40.86 104.62,61.3 144.99,61.3 42.09,0 73.85,-14.28 95.02,-43.08 21.17,-28.56 31.75,-71.39 31.75,-128.25 0,-69.17 -15.51,-124.56 -46.77,-165.67 -31.26,-41.11 -69.17,-61.79 -113.97,-61.79 -39.39,0 -76.31,12.07 -111.02,36.19zm910.55 -70.16l261.42 0 0 33.97c-18.46,0.5 -27.57,7.14 -27.57,19.94 0,3.94 0.99,8.37 2.96,13.3l226.46 448.99c116.44,-181.91 174.78,-315.08 174.78,-399.02 0,-29.79 -8.62,-51.2 -26.09,-63.76 -17.48,-12.55 -47.76,-18.95 -90.59,-19.45l0 -33.97 344.13 0 0 33.97c-27.81,0.5 -55.14,13.05 -81.48,37.67 -26.58,24.61 -56.86,66.21 -91.08,124.8l-218.83 372.2 0 205.3c0,74.34 36.43,112.74 109.29,115.2l0 33.97 -351.52 0 0 -33.97c42.59,-0.49 71.64,-8.86 86.65,-25.11 15.02,-16 22.65,-46.03 22.65,-90.09l0 -205.3 -180.93 -361.61c-27.32,-55.39 -53.17,-97.98 -77.54,-127.76 -24.62,-29.79 -52.19,-44.8 -82.71,-45.3l0 -33.97z"/>
  <path class="fil10" d="M32240.02 23110.54c-2109.68,-90.88 -23743.26,-97.57 -24284.03,4.57 6083.67,63.2 12172.56,83.42 18260.37,45.89 1992.67,-12.29 4037.51,24.8 6023.66,-50.46z"/>
  <path class="fil10" d="M7574.78 21939.15c-37.19,-58.81 -31.13,-150.55 -30.67,-217.7l13.85 -638.08 344.54 17.28c332.45,-1.28 546.85,300.93 432.27,666.44 -47.58,151.83 -121.52,227.05 -311.95,260.65 -196.27,34.64 -379.77,53.58 -448.04,-88.59zm10.14 -1814.32c914.78,-61.08 675.82,681.68 524.36,790.16 -41.58,29.79 -536.66,216.12 -554.22,-48.56 -11.11,-167.44 -19.99,-601.97 29.86,-741.6zm-665.78 -49.12c325.59,136.85 264.41,-71.55 265.3,1027.88 0.18,217.43 3.11,435.11 2.06,652.47 -1.75,363.84 -51.85,230.6 -277.2,341.14 100.95,108.04 1358.42,98.83 1610.69,-85.03 340.2,-247.95 455.13,-894.23 -342.93,-968.79 134.44,-138.87 336.15,-100.89 430.86,-384.83 75.94,-227.67 -38.57,-426.36 -199.17,-523.47 -232.38,-140.49 -779.47,-105.69 -1105.42,-103.87 -67.77,0.38 -140.4,-1.52 -207.16,-0.17 -154.32,3.1 -118.59,2.57 -177.03,44.67z"/>
  <path class="fil10" d="M26554.35 20454.3c28.15,-17.17 -21.34,-24.02 105.68,-39.39 747.32,-90.4 664.93,1077.61 -119.33,808.92l13.65 -769.53zm-638.45 -104.49c118.21,60.5 113.57,15.08 229.2,105.31 38.04,210.8 41.26,1379.07 -10.06,1568.1 -31.21,46.86 -154.06,56.03 -226.69,108.26 95.77,45.68 766.88,58.69 872.59,0 -209.08,-163.94 -281.1,173.06 -244.77,-780.94 378.77,13.1 171.61,-24.48 641.32,573.94 59.16,75.36 146.58,200.63 281.25,229.67 124.75,26.9 368.18,28.12 464.15,-22.67 -100.29,-78.17 -157.21,-31.51 -274.01,-129.61l-500.88 -726.96c634.86,-342.62 442.79,-719.59 168.53,-860.26 -190.72,-97.82 -1233.58,-153.9 -1400.63,-64.84z"/>
  <path class="fil10" d="M16628.48 20410.91c972.16,-363.35 1163.92,1448.03 424.61,1666.05 -914.61,269.71 -1261.52,-1353.25 -424.61,-1666.05zm-109 -108.93c-1341.87,366.95 -869.74,2187.65 623.2,1871.26 508.77,-107.81 894.47,-585.71 740.15,-1232.01 -117.71,-492.97 -744.21,-808.56 -1363.35,-639.25z"/>
  <path class="fil10" d="M19760.81 20318.13l22.72 66.72c276.39,23.28 228.49,254.04 228.94,513.17 0.43,256.53 -4.37,512.17 1.37,768.69l-1013.84 -986.45c-354.22,-367.66 -183.84,-388.6 -735.13,-362.55 -2.47,0.12 -53.81,1.57 -65.23,3.46 -55.14,9.15 -51.42,17.44 -72.33,28.64 45.39,24.17 7.33,7.71 73.83,29.92 272.71,91 223.45,206.71 220.37,655.34 -7.29,1061.83 50.44,923.43 -227.2,1054.1 -78.15,36.77 -19.74,3.91 -75.25,55.22l744.09 6.68c-117.45,-119.99 -220.11,-72.68 -270.07,-169.12 -38.82,-205.01 -42.52,-1038.35 -7.16,-1244.02l754.86 765.57c121.01,126.22 648.47,710.68 788.04,708.5 23.28,-323.34 15.21,-710.95 15.07,-1039.88 -0.34,-827.95 -22.67,-662.47 256.35,-822.31 -97.52,-47.09 -191.79,-30.44 -316.92,-29.69 -107.7,0.65 -215.16,1.22 -322.51,-1.99z"/>
  <path class="fil10" d="M31573.15 20349.81c58.19,46.03 179.1,50.14 215.82,113.64 39.92,191.56 40.79,1361.49 2.57,1557.68l-242.73 110.35c8.28,4.22 19.54,2.88 24.46,13.36 16.52,35.22 645.4,16.94 707.6,17.4 262.58,1.87 525.77,9.18 788.04,7.83 64.63,-110.5 97.73,-322.13 100.66,-476.65 -116.99,55.23 -153.21,241.01 -321,321.48 -151.29,72.55 -464.67,100.54 -596.72,14.23 -125.08,-93.14 -73.28,-478.94 -77.26,-763.99 698.31,-6.09 473.31,41.34 654.49,219.74 50.23,-121.38 32.86,-378.57 19.69,-537.57 -145.6,55.14 -4.82,148.7 -208.14,203.04 -103.94,27.77 -336.7,15.26 -447.26,2.79l-13.39 -695.35c806.37,-161.82 718.34,227.6 855.59,306.67l1.96 -439.35c-225.14,-6.27 -1346.46,-25.4 -1464.38,24.7z"/>
  <path class="fil10" d="M9775.43 21192.06c138.49,-3.55 295.77,76.43 393.04,-58.76l-393.1 5.02c-0.2,-169.37 -0.4,-331.59 -0.76,-448.73 -0.33,-107.08 -0.78,-176.44 -2.91,-217.63l3.78 -44.03c60.19,-12.17 -3.09,-4.24 61.15,-10.94 32.71,-3.41 102.94,-1.47 139.04,-1.62 531.6,-2.26 391.19,78.32 548.35,332.64 69.22,-90.88 30.07,-314.08 28.01,-430.58l-1472.54 -9.96c234.3,236.22 314.68,-272.76 265.94,1517.25 -8.68,318.94 -143.83,164.01 -276.79,306.76l1545.15 26.97 67.66 -483.22c-202.61,96.68 -120.94,461.36 -806.94,374.71 -39.36,-4.97 -71.24,-20.96 -96.95,-45.23 -0.47,-41.3 -0.92,-107.52 -1.24,-214.17 -0.45,-148.81 -0.66,-376.32 -0.89,-598.48z"/>
  <path class="fil10" d="M30261.17 22191.73c93.2,6.47 44.8,21.57 103.37,-32.6l676.4 -1438.49c245.71,-428.38 202.24,-222.2 340.44,-370.83 -134.96,-64.94 -530.87,-51.55 -651.16,0l122.77 62.08c53.69,29.12 46.13,29.63 89.58,65.29 -12.88,207.58 -139.47,455.5 -224.08,639.74 -43.92,95.64 -86.4,179.1 -133.86,277.71 -24.63,51.14 -41.92,89.12 -65.44,141.86l-88.51 146.07c-101.92,-192.1 -549.48,-1065.82 -540.45,-1228.25 59.07,-41.61 -4.37,-8.08 80.99,-46.95l115.82 -57.55c-125.65,-60 -761.32,-50.6 -888.07,0 6.72,4.95 16.57,4.85 20.17,14.82 42.22,116.69 83.11,-165.33 336.76,346.09l705.27 1481.01z"/>
  <path class="fil10" d="M22404.87 20787.55c79.18,-30.78 38.87,5.11 52.68,-92.63 0.06,-0.4 -5.71,-126.35 -6.08,-139.12 -2.38,-80.84 -2.63,-157.85 -6.64,-239.45l-1798.31 3.64 -13.54 479.1c175.33,-50.93 35.68,42.12 114.95,-159.91 30.01,-76.5 72.38,-119.2 124.7,-149.31 125.63,-72.3 351.13,-54.69 511.87,-51.07 -5.75,402.21 48,1272.22 -25.3,1601.16 -36.8,15.3 -69.73,25.65 -123.11,41.35 -10.32,3.04 -43.98,9.43 -53.23,12.97 -68.61,26.26 -24.5,6.83 -59.86,37.2 124.71,51.84 798.88,47.35 914.09,0 -24.06,-16.12 -14.16,-18.42 -71.66,-35.47 -32.17,-9.55 -147.05,-13.98 -193.76,-101.58 -62.65,-279.92 -22.12,-1214.86 -15.8,-1555.26 396.11,-16.56 559.08,-38.67 649,348.38z"/>
  <path class="fil10" d="M11275.71 20589.66c-2.05,445.11 21.92,1023.98 -25.7,1446.99l-175.18 55.73c-67.61,27.41 -26.76,9.2 -59.27,39.1 111.56,44.34 1312.76,32.84 1521.16,23.86l69.52 -497.67c-182.08,89.31 -23.65,76.05 -250.04,283.91 -138.04,126.72 -529.61,165.7 -692.07,47.72 -27.62,-205.64 -55,-1246.73 -17.52,-1471.07 11.69,-69.99 11.14,-93.99 78.16,-132.08 77.9,-44.27 70.38,6.7 178.45,-75.38l-880.5 0.91c131.58,102.38 254.1,31.38 252.99,277.98z"/>
  <path class="fil10" d="M14841.86 20785.5c40.02,320.36 72.51,1029.12 18.22,1231.31 -132.2,105.9 -149.79,18.52 -241.17,114.67 96.4,40.92 809.9,38.54 898.98,0 -30.11,-25.24 2.4,-14.32 -62.58,-38.48 -268.23,-99.73 -206.53,-47.75 -220.53,-1022.3 -2.13,-148.11 -15.32,-337.62 -4.26,-481.21 15.45,-200.75 65.1,-161.46 217.27,-239.68 -37.41,-32.72 58.4,-23.64 -90.42,-42.12l-481.97 13.89c-3.82,6.74 -7.86,14.08 -12.08,21.88l-692.92 1256c-174.95,-214.82 -607.08,-1105.57 -665.33,-1285.59l-615.53 -7.05c121.29,125.41 108.26,23.03 203.48,111.21 137.74,127.55 21.36,1185.86 -6.1,1405.73 -11.97,95.85 -32.78,168.2 -90.46,210.53 -53.21,39.07 -43.19,19.37 -96.8,37.23 -10.18,3.39 -42.15,9.15 -51.32,13.27 -68.24,30.55 -24,10.06 -61.9,46.69 120.83,41.96 548.19,43.55 681.95,0 -76.49,-65.18 -137.88,-59.04 -180.28,-82.44l0 -1341.4 50.88 88.94 714.09 1374.04c126.28,-123.54 664.41,-1166.72 788.78,-1385.12z"/>
  <path class="fil10" d="M28137.48 20349.81c140.48,81.55 222.27,24.52 239.43,238.29l-26.13 1454.61 -244.97 76.82c93.06,67.69 305.12,44.62 440.42,44.37 80.19,-0.14 160.3,-1.25 240.46,-1.88 108.99,-0.81 125.39,11.93 213.73,-30.54 -308.29,-173.96 -254.41,147.78 -259.27,-1062.14 -3.61,-898.54 -8.21,-557.93 236.03,-719.53 -103.7,-58.85 -745.88,-44.48 -839.7,0z"/>
  <path class="fil10" d="M10168.47 21133.3c-106.65,148.22 -285.43,37.77 -432.49,62.36 -62.75,28.85 -19.73,-18.23 -12.32,50.33 748.64,-42 431.54,129.29 666.7,240.6l2.13 -570.44c-141.27,88.88 -9.23,-5.04 -106.73,123.41 -45.23,59.59 -47.2,55.27 -117.29,93.74z"/>
  <path class="fil10" d="M19783.53 20384.85l-22.72 -66.72c-74.07,-3.16 -64.79,-26.19 -62.11,31.68 49.85,50.68 -16.29,13.09 84.83,35.04z"/>
  <path class="fil7" d="M11991.53 14494.54c-4.33,-10.62 20.04,1.17 63.65,34.18 43.62,33 106.49,87.24 172.9,130.08 66.41,42.82 136.35,74.25 193.4,93.62 57.04,19.36 101.19,26.66 105.51,27.05 4.32,0.4 -31.17,-6.12 -87.82,-20.37 -56.65,-14.25 -134.47,-36.26 -200.87,-68.87 -66.42,-32.62 -121.43,-75.85 -165.44,-113.96 -44.01,-38.12 -77.01,-71.12 -81.33,-81.73z"/>
  <path class="fil10" d="M23869.58 20081.65c46.76,16.5 135.57,33.01 179.58,56.59 44.01,23.56 43.23,54.22 42.85,357.98 -0.4,303.75 -0.4,880.6 -0.4,1177.67 0,297.08 0,314.37 -5.66,332.8 -5.65,18.45 -16.97,38.05 -33.57,54.17 -16.61,16.11 -38.51,28.76 -76.87,35.08 -38.35,6.32 -93.16,6.32 -114.79,16.31 -21.64,10 -10.1,29.99 133.72,39.98 143.82,10 419.93,10 581.56,10 161.62,0 208.78,0 234.67,-8.63 25.89,-8.62 30.52,-25.87 -2.49,-34.5 -33.01,-8.62 -103.65,-8.62 -160.23,-20.89 -56.59,-12.28 -99.12,-36.83 -123.46,-60.61 -24.35,-23.78 -30.51,-46.79 -33.59,-180.11 -3.09,-133.31 -3.09,-376.94 -5.07,-502.29 -1.99,-125.35 -5.97,-132.43 54.42,-116.25 60.37,16.18 185.09,55.61 307.3,63.87 122.21,8.25 241.93,-14.67 341.07,-47.36 99.14,-32.68 177.74,-75.11 242.19,-141.13 64.43,-66.02 114.72,-155.61 146.16,-248.35 31.44,-92.73 44.02,-188.62 33.01,-289.21 -11,-100.59 -45.57,-205.91 -124.16,-294.72 -78.59,-88.81 -201.2,-161.1 -297.87,-197.26 -96.67,-36.15 -167.39,-36.15 -392.16,-38.9 -224.78,-2.75 -603.6,-8.26 -790.64,-2.75 -187.05,5.5 -182.34,22.01 -135.57,38.51zm619.68 225.12c0.78,156.8 0.78,463.31 -0.45,621.15 -1.23,157.86 -3.7,167.04 1.02,181.19 4.71,14.15 16.61,33.26 42.99,49.87 26.38,16.63 67.25,30.78 123.05,42.96 55.8,12.18 126.53,22.4 184.69,19.26 58.16,-3.15 103.73,-19.66 155.21,-53.84 51.48,-34.19 108.86,-86.06 148.16,-168.58 39.28,-82.52 60.51,-195.7 66.4,-284.9 5.89,-89.2 -3.54,-154.42 -19.64,-216.13 -16.12,-61.68 -38.91,-119.85 -78.6,-173.29 -39.69,-53.45 -96.27,-102.16 -144.01,-131.62 -47.76,-29.46 -86.68,-39.64 -143.19,-46.87 -56.5,-7.23 -130.58,-11.49 -190.11,-12.68 -59.53,-1.2 -104.49,0.68 -126.18,5.16 -21.7,4.47 -20.13,11.54 -19.34,168.32z"/>
 </g>
</svg>
